<svg xmlns="http://www.w3.org/2000/svg" xmlns:svg="http://www.w3.org/2000/svg" id="svg12" width="55pt" height="55pt" version="1.1" viewBox="0 0 55 55"><defs id="defs2"><clipPath id="clip_1"><path id="path2" d="M 0,0 H 340.157 V 85.039 H 0 Z" transform="matrix(1,0,0,-1,-15.732,60.378)"/></clipPath><clipPath id="clipPath13" clipPathUnits="userSpaceOnUse"><g id="g14"><path id="path13" d="M -15.732,60.378 H 324.425 V -24.6614 H -15.732 Z"/></g></clipPath><clipPath id="clipPath14" clipPathUnits="userSpaceOnUse"><g id="g15"><path id="path14" d="M -15.732,60.378 H 324.425 V -24.6614 H -15.732 Z"/></g></clipPath><clipPath id="clipPath15" clipPathUnits="userSpaceOnUse"><g id="g16"><path id="path15" d="M -15.732,60.378 H 324.425 V -24.6614 H -15.732 Z"/></g></clipPath></defs><g id="g11" clip-path="url(#clipPath14)" transform="translate(-0.15133898,9.5343558)"><path id="path8" fill="#7f529a" d="m 0,0 c -1.975,1.277 -4.263,1.953 -6.616,1.953 -2.355,0 -4.644,-0.676 -6.62,-1.955 -0.403,-0.261 -0.663,-0.687 -0.714,-1.168 -0.052,-0.492 0.119,-0.974 0.467,-1.322 l 0.662,-0.662 c 0.314,-0.314 0.726,-0.476 1.14,-0.476 0.289,0 0.578,0.078 0.837,0.238 1.271,0.785 2.733,1.201 4.228,1.201 1.493,0 2.954,-0.415 4.224,-1.199 0.633,-0.391 1.446,-0.294 1.977,0.238 l 0.662,0.662 c 0.349,0.349 0.519,0.831 0.467,1.322 C 0.663,-0.686 0.403,-0.261 0,0" transform="matrix(1,0,0,-1,24.7522,7.6497995)"/><path id="path9" fill="#3ea3dc" d="m 0,0 c -3.689,0.873 -6.266,4.13 -6.266,7.921 0,1.503 0.417,2.975 1.207,4.254 0.375,0.609 0.281,1.391 -0.23,1.901 l -0.662,0.662 c -0.335,0.336 -0.799,0.499 -1.272,0.45 -0.464,-0.05 -0.873,-0.299 -1.123,-0.687 -1.27,-1.964 -1.941,-4.24 -1.941,-6.58 0,-5.687 4.035,-10.685 9.594,-11.885 0.106,-0.023 0.212,-0.034 0.319,-0.034 0.343,0 0.68,0.118 0.956,0.341 0.37,0.299 0.583,0.744 0.583,1.219 v 0.923 C 1.165,-0.797 0.675,-0.159 0,0" transform="matrix(1,0,0,-1,16.2614,25.841099)"/><path id="path10" fill="#7f529a" d="m 0,0 c -6.706,0 -12.162,-5.456 -12.162,-12.162 l 0.006,-0.053 -0.007,-0.061 c -0.052,-3.815 -2.807,-7.124 -6.549,-7.868 -0.51,-0.101 -0.881,-0.553 -0.881,-1.072 v -1.856 c 0,-0.325 0.142,-0.632 0.391,-0.844 0.242,-0.206 0.56,-0.295 0.871,-0.244 5.905,0.966 10.19,6.013 10.19,11.999 0,4.488 3.652,8.14 8.141,8.14 4.489,0 8.141,-3.652 8.141,-8.141 0,-4.488 -3.652,-8.141 -8.141,-8.141 -1.108,0 -2.01,-0.901 -2.01,-2.01 0,-1.108 0.902,-2.01 2.01,-2.01 6.706,0 12.162,5.456 12.162,12.161 C 12.162,-5.456 6.706,0 0,0" transform="matrix(1,0,0,-1,38.437997,5.758499)"/></g></svg>